<svg xmlns="http://www.w3.org/2000/svg" viewBox="0 0 430 250" width="430" height="250" role="img" aria-label="Winkelomgeving">
  <title>Winkelomgeving</title>
  <defs>
    <linearGradient id="g" x1="0" y1="0" x2="1" y2="1"><stop offset="0" stop-color="#e31937"/><stop offset=".5" stop-color="#c4187a"/><stop offset="1" stop-color="#46248a"/></linearGradient>
    <linearGradient id="gh" x1="0" y1="0" x2="1" y2="0"><stop offset="0" stop-color="#e31937"/><stop offset=".55" stop-color="#c4187a"/><stop offset="1" stop-color="#46248a"/></linearGradient>
  </defs>
<rect width="430" height="250" fill="#f1f1f3"/><rect y="180" width="430" height="70" fill="#e2e2e6"/><rect x="19.349999999999998" y="60" width="81.7" height="120" fill="#cfcfd6"/><rect x="19.349999999999998" y="90" width="81.7" height="4.5" fill="#b6b6c0"/><rect x="19.349999999999998" y="120" width="81.7" height="4.5" fill="#b6b6c0"/><rect x="19.349999999999998" y="150" width="81.7" height="4.5" fill="#b6b6c0"/><rect x="120.39999999999999" y="35" width="81.7" height="145" fill="#cfcfd6"/><rect x="120.39999999999999" y="71.25" width="81.7" height="4.5" fill="#b6b6c0"/><rect x="120.39999999999999" y="107.5" width="81.7" height="4.5" fill="#b6b6c0"/><rect x="120.39999999999999" y="143.75" width="81.7" height="4.5" fill="#b6b6c0"/><rect x="221.45" y="60" width="81.7" height="120" fill="#cfcfd6"/><rect x="221.45" y="90" width="81.7" height="4.5" fill="#b6b6c0"/><rect x="221.45" y="120" width="81.7" height="4.5" fill="#b6b6c0"/><rect x="221.45" y="150" width="81.7" height="4.5" fill="#b6b6c0"/><rect x="322.5" y="35" width="81.7" height="145" fill="#cfcfd6"/><rect x="322.5" y="71.25" width="81.7" height="4.5" fill="#b6b6c0"/><rect x="322.5" y="107.5" width="81.7" height="4.5" fill="#b6b6c0"/><rect x="322.5" y="143.75" width="81.7" height="4.5" fill="#b6b6c0"/><rect x="266.6" y="150" width="23.65" height="30" fill="url(#g)" opacity=".85"/><g transform="translate(318.2 180) scale(0.7352941176470589)" fill="#c9c0e6"><circle cx="0" cy="-56" r="26"/><path d="M-38 0c2-30 16-44 38-44s36 14 38 44z"/></g>
<g><rect width="84" height="19" fill="#ffffff" opacity=".92"/><text x="6" y="13.5" font-family="Source Sans 3, Segoe UI, Arial, sans-serif" font-size="11" font-weight="600" fill="#2c1a5e">placeholder</text></g>
</svg>
