<svg xmlns="http://www.w3.org/2000/svg" viewBox="0 0 430 250" width="430" height="250" role="img" aria-label="Presentatie tijdens een CGI-event">
  <title>Presentatie tijdens een CGI-event</title>
  <defs>
    <linearGradient id="g" x1="0" y1="0" x2="1" y2="1"><stop offset="0" stop-color="#e31937"/><stop offset=".5" stop-color="#c4187a"/><stop offset="1" stop-color="#46248a"/></linearGradient>
    <linearGradient id="gh" x1="0" y1="0" x2="1" y2="0"><stop offset="0" stop-color="#e31937"/><stop offset=".55" stop-color="#c4187a"/><stop offset="1" stop-color="#46248a"/></linearGradient>
  </defs>
<rect width="430" height="250" fill="#2c1a5e"/><rect x="86" y="35" width="258" height="90" fill="#3a2470"/><rect x="103.2" y="50" width="129" height="11.25" fill="#7a5cc4"/><rect x="103.2" y="72.5" width="86" height="11.25" fill="#5b3fa8"/><rect x="266.6" y="50" width="51.6" height="55" fill="url(#g)" opacity=".9"/><g transform="translate(68.8 255) scale(0.8333333333333334)" fill="#4a3382"><circle cx="0" cy="-56" r="26"/><path d="M-38 0c2-30 16-44 38-44s36 14 38 44z"/></g><g transform="translate(141.9 255) scale(0.8333333333333334)" fill="#4a3382"><circle cx="0" cy="-56" r="26"/><path d="M-38 0c2-30 16-44 38-44s36 14 38 44z"/></g><g transform="translate(215 255) scale(0.8333333333333334)" fill="#4a3382"><circle cx="0" cy="-56" r="26"/><path d="M-38 0c2-30 16-44 38-44s36 14 38 44z"/></g><g transform="translate(288.1 255) scale(0.8333333333333334)" fill="#4a3382"><circle cx="0" cy="-56" r="26"/><path d="M-38 0c2-30 16-44 38-44s36 14 38 44z"/></g><g transform="translate(361.20000000000005 255) scale(0.8333333333333334)" fill="#4a3382"><circle cx="0" cy="-56" r="26"/><path d="M-38 0c2-30 16-44 38-44s36 14 38 44z"/></g>
<g><rect width="84" height="19" fill="#ffffff" opacity=".92"/><text x="6" y="13.5" font-family="Source Sans 3, Segoe UI, Arial, sans-serif" font-size="11" font-weight="600" fill="#2c1a5e">placeholder</text></g>
</svg>
