<svg xmlns="http://www.w3.org/2000/svg" viewBox="0 0 800 450" width="800" height="450" role="img" aria-label="Schematische weergave van een CGI-framework">
  <title>Schematische weergave van een CGI-framework</title>
  <defs>
    <linearGradient id="g" x1="0" y1="0" x2="1" y2="1"><stop offset="0" stop-color="#e31937"/><stop offset=".5" stop-color="#c4187a"/><stop offset="1" stop-color="#46248a"/></linearGradient>
    <linearGradient id="gh" x1="0" y1="0" x2="1" y2="0"><stop offset="0" stop-color="#e31937"/><stop offset=".55" stop-color="#c4187a"/><stop offset="1" stop-color="#46248a"/></linearGradient>
  </defs>
<rect width="800" height="450" fill="#ffffff"/><rect x="48" y="45" width="704" height="360" fill="#eae6f7"/><rect x="88" y="108" width="176" height="90" fill="#ffffff"/><rect x="88" y="108" width="176" height="9.899999999999999" fill="url(#gh)"/><rect x="104" y="144" width="112.00000000000001" height="13.5" fill="#c9c0e6"/><path d="M268 153 h 24" stroke="#46248a" stroke-width="4.5"/><rect x="312" y="108" width="176" height="90" fill="#ffffff"/><rect x="312" y="108" width="176" height="9.899999999999999" fill="url(#gh)"/><rect x="328" y="144" width="112.00000000000001" height="13.5" fill="#c9c0e6"/><path d="M492 153 h 24" stroke="#46248a" stroke-width="4.5"/><rect x="536" y="108" width="176" height="90" fill="#ffffff"/><rect x="536" y="108" width="176" height="9.899999999999999" fill="url(#gh)"/><rect x="552" y="144" width="112.00000000000001" height="13.5" fill="#c9c0e6"/><rect x="88" y="252.00000000000003" width="624" height="27" fill="#dcd6f0"/><rect x="88" y="306" width="400" height="27" fill="#dcd6f0"/>
<g><rect width="84" height="19" fill="#ffffff" opacity=".92"/><text x="6" y="13.5" font-family="Source Sans 3, Segoe UI, Arial, sans-serif" font-size="11" font-weight="600" fill="#2c1a5e">placeholder</text></g>
</svg>
