<svg xmlns="http://www.w3.org/2000/svg" viewBox="0 0 360 220" width="360" height="220" role="img" aria-label="Werksessie met business en IT">
  <title>Werksessie met business en IT</title>
  <defs>
    <linearGradient id="g" x1="0" y1="0" x2="1" y2="1"><stop offset="0" stop-color="#e31937"/><stop offset=".5" stop-color="#c4187a"/><stop offset="1" stop-color="#46248a"/></linearGradient>
    <linearGradient id="gh" x1="0" y1="0" x2="1" y2="0"><stop offset="0" stop-color="#e31937"/><stop offset=".55" stop-color="#c4187a"/><stop offset="1" stop-color="#46248a"/></linearGradient>
  </defs>
<rect width="360" height="220" fill="#f1f1f3"/><rect x="28.8" y="26.4" width="180" height="114.4" fill="#ffffff"/><rect x="43.199999999999996" y="44" width="122.4" height="7.700000000000001" fill="#dcd6f0"/><rect x="43.199999999999996" y="66.00000000000001" width="104.4" height="7.700000000000001" fill="#dcd6f0"/><rect x="43.199999999999996" y="88" width="86.4" height="7.700000000000001" fill="#dcd6f0"/><rect x="43.199999999999996" y="110" width="68.4" height="7.700000000000001" fill="#dcd6f0"/><rect x="154.8" y="44" width="36" height="22" fill="url(#g)" opacity=".9"/><rect y="162.8" width="360" height="57.2" fill="#e2e2e6"/><g transform="translate(251.99999999999997 162.8) scale(0.6666666666666666)" fill="#c9c0e6"><circle cx="0" cy="-56" r="26"/><path d="M-38 0c2-30 16-44 38-44s36 14 38 44z"/></g><g transform="translate(316.8 162.8) scale(0.5641025641025641)" fill="#b6b6c0"><circle cx="0" cy="-56" r="26"/><path d="M-38 0c2-30 16-44 38-44s36 14 38 44z"/></g>
<g><rect width="84" height="19" fill="#ffffff" opacity=".92"/><text x="6" y="13.5" font-family="Source Sans 3, Segoe UI, Arial, sans-serif" font-size="11" font-weight="600" fill="#2c1a5e">placeholder</text></g>
</svg>
